<svg width="76" height="76" viewBox="0 0 76 76" fill="none" xmlns="http://www.w3.org/2000/svg" xmlns:xlink="http://www.w3.org/1999/xlink">
<g style="isolation:isolate">
<rect  x="4.75" y="14.25" width="63.333" height="44.333" stroke="#5B6F94" stroke-width="1.583" stroke-miterlimit="3.999327" stroke-linecap="round" stroke-linejoin="round"/>
</g>
<g style="isolation:isolate">
<path d="M38,44.333L36.941,45.51L38,46.464L39.059,45.51L38,44.333ZM5.274,17.01L36.941,45.51L39.059,43.157L7.392,14.656L5.274,17.01ZM39.059,45.51L70.726,17.01L68.607,14.656L36.941,43.157L39.059,45.51Z" fill="#5B6F94"/>
</g>
<g style="isolation:isolate">
<path d="M7.525,61.209L29.691,35.876L27.308,33.791L5.142,59.124L7.525,61.209Z" fill="#5B6F94"/>
</g>
<g style="isolation:isolate">
<path d="M70.858,59.124L48.692,33.791L46.308,35.876L68.475,61.209L70.858,59.124ZM46.308,35.876L68.475,61.209L70.858,59.124L48.692,33.791L46.308,35.876Z" fill="#5B6F94"/>
</g>
</svg>
