<svg width="68" height="24" viewBox="0 0 68 24" fill="none" xmlns="http://www.w3.org/2000/svg" xmlns:xlink="http://www.w3.org/1999/xlink">
<g style="isolation:isolate">
<path d="M20.554,5.361C20.554,4.578 19.92,3.944 19.137,3.944C18.355,3.944 17.721,4.578 17.721,5.361L20.554,5.361ZM50.124,5.361C50.124,4.578 49.49,3.944 48.707,3.944C47.925,3.944 47.291,4.578 47.291,5.361L50.124,5.361ZM51.043,18.427L50.795,19.821L51.043,18.427ZM62.491,9.439L61.845,10.699L62.491,9.439ZM63.119,20.579L62.87,21.974L63.119,20.579ZM17.721,5.361L17.721,15.637L20.554,15.637L20.554,5.361L17.721,5.361ZM16.553,17.032L4.477,19.184L4.975,21.974L17.05,19.821L16.553,17.032ZM2.812,17.79L2.812,16.242L-0.021,16.242L-0.021,17.79L2.812,17.79ZM6,10.699C11.369,7.945 21.757,3.615 33.922,3.615L33.922,0.782C21.125,0.782 10.275,5.322 4.707,8.178L6,10.699ZM33.922,3.615C46.088,3.615 56.475,7.945 61.845,10.699L63.138,8.178C57.57,5.322 46.72,0.782 33.922,0.782L33.922,3.615ZM65.033,16.242L65.033,17.79L67.866,17.79L67.866,16.242L65.033,16.242ZM63.367,19.184L51.292,17.032L50.795,19.821L62.87,21.974L63.367,19.184ZM50.124,15.637L50.124,5.361L47.291,5.361L47.291,15.637L50.124,15.637ZM51.292,17.032C50.616,16.911 50.124,16.324 50.124,15.637L47.291,15.637C47.291,17.697 48.767,19.46 50.795,19.821L51.292,17.032ZM61.845,10.699C63.845,11.725 65.033,13.857 65.033,16.242L67.866,16.242C67.866,12.935 66.203,9.75 63.138,8.178L61.845,10.699ZM2.812,16.242C2.812,13.857 4,11.725 6,10.699L4.707,8.178C1.642,9.75 -0.021,12.935 -0.021,16.242L2.812,16.242ZM4.477,19.184C3.609,19.339 2.812,18.671 2.812,17.79L-0.021,17.79C-0.021,20.435 2.37,22.438 4.975,21.974L4.477,19.184ZM65.033,17.79C65.033,18.671 64.235,19.339 63.367,19.184L62.87,21.974C65.475,22.438 67.866,20.435 67.866,17.79L65.033,17.79ZM17.721,15.637C17.721,16.324 17.229,16.911 16.553,17.032L17.05,19.821C19.077,19.46 20.554,17.697 20.554,15.637L17.721,15.637Z" transform="rotate(-270 33.922 11.411)" fill="#5B6F94"/>
</g>
</svg>
