<svg width="176" height="176" viewBox="0 0 176 176" fill="none" xmlns="http://www.w3.org/2000/svg" xmlns:xlink="http://www.w3.org/1999/xlink">
<g style="isolation:isolate">
<path d="M91.666,22C91.666,19.975 90.024,18.333 87.999,18.333C85.974,18.333 84.333,19.975 84.333,22L91.666,22ZM84.333,110C84.333,112.025 85.974,113.667 87.999,113.667C90.024,113.667 91.666,112.025 91.666,110L84.333,110ZM84.333,22L84.333,110L91.666,110L91.666,22L84.333,22Z" fill="#2329D6"/>
</g>
<g style="isolation:isolate">
<path d="M68.593,12.074C67.161,10.642 64.839,10.642 63.407,12.074C61.975,13.506 61.975,15.827 63.407,17.259L68.593,12.074ZM88,36.667L85.407,39.259L88,41.852L90.593,39.259L88,36.667ZM112.593,17.259C114.025,15.827 114.025,13.506 112.593,12.074C111.161,10.642 108.839,10.642 107.407,12.074L112.593,17.259ZM63.407,17.259L85.407,39.259L90.593,34.074L68.593,12.074L63.407,17.259ZM90.593,39.259L112.593,17.259L107.407,12.074L85.407,34.074L90.593,39.259Z" fill="#2329D6"/>
</g>
<g style="isolation:isolate">
<rect  x="44" y="66" width="88" height="88" transform="rotate(0 44 66)" stroke="#2329D6" stroke-width="3.667" stroke-miterlimit="3.999327" stroke-linecap="round" stroke-linejoin="round"/>
</g>
</svg>
