<svg width="60" height="60" viewBox="0 0 60 60" fill="none" xmlns="http://www.w3.org/2000/svg" xmlns:xlink="http://www.w3.org/1999/xlink">
<path d="M30,30C38.103,30 44.667,23.437 44.667,15.333C44.667,7.23 38.103,0.667 30,0.667C21.897,0.667 15.333,7.23 15.333,15.333C15.333,23.437 21.897,30 30,30ZM30,37.333C20.21,37.333 0.667,42.247 0.667,52L0.667,55.667C0.667,57.683 2.317,59.333 4.333,59.333L55.667,59.333C57.683,59.333 59.333,57.683 59.333,55.667L59.333,52C59.333,42.247 39.79,37.333 30,37.333Z" fill="#5B6F94"/>
</svg>
