<svg width="64" height="64" viewBox="0 0 64 64" fill="none" xmlns="http://www.w3.org/2000/svg" xmlns:xlink="http://www.w3.org/1999/xlink">
<path d="M31,31C39.656,31 46.667,23.989 46.667,15.333C46.667,6.678 39.656,-0.333 31,-0.333C22.344,-0.333 15.333,6.678 15.333,15.333C15.333,23.989 22.344,31 31,31ZM31,38.833C20.542,38.833 -0.333,44.082 -0.333,54.5L-0.333,58.417C-0.333,60.571 1.429,62.333 3.583,62.333L58.417,62.333C60.571,62.333 62.333,60.571 62.333,58.417L62.333,54.5C62.333,44.082 41.457,38.833 31,38.833Z" fill="#5B6F94"/>
</svg>
